<svg id="Layer_1" enable-background="new 0 0 512 512" height="512" viewBox="0 0 512 512" width="512" xmlns="http://www.w3.org/2000/svg"><g><path d="m356 476h-200c-11.046 0-20-8.954-20-20v-400c0-11.046 8.954-20 20-20h200c11.046 0 20 8.954 20 20v400c0 11.046-8.954 20-20 20z" fill="#ccf5fc"/><path d="m196 36h120v40h-120z" fill="#fff"/><g><path d="m296 446h-80c-5.523 0-10-4.478-10-10s4.477-10 10-10h80c5.522 0 10 4.478 10 10s-4.478 10-10 10z" fill="#fff"/></g><g><circle cx="256" cy="316" fill="#fff" r="60"/><g fill="#ccf5fc"><circle cx="256" cy="316" r="20"/><path d="m256 336c17.411 0 32.216 11.127 37.711 26.656-10.305 8.34-23.421 13.344-37.711 13.344s-27.406-5.004-37.711-13.344c5.495-15.529 20.3-26.656 37.711-26.656z"/></g></g><g><path d="m10 216h50l40 30v-30h70v-120h-160z" fill="#fff"/><g><path d="m128 146h-76c-5.522 0-10-4.477-10-10s4.478-10 10-10h76c5.523 0 10 4.477 10 10s-4.477 10-10 10z" fill="#dfedff"/></g><g><path d="m100 186h-48c-5.522 0-10-4.477-10-10s4.478-10 10-10h48c5.522 0 10 4.477 10 10s-4.478 10-10 10z" fill="#dfedff"/></g></g><path d="m502 256h-50l-40 30v-30h-70v-120h160z" fill="#fff"/><g fill="#60a4ff"><path d="m256 246c-38.598 0-70 31.402-70 70s31.402 70 70 70 70-31.402 70-70-31.402-70-70-70zm-24.921 113.319c5.507-8.22 14.798-13.319 24.921-13.319s19.414 5.099 24.921 13.318c-7.342 4.242-15.849 6.682-24.921 6.682s-17.579-2.44-24.921-6.681zm14.921-43.319c0-5.514 4.486-10 10-10s10 4.486 10 10-4.486 10-10 10-10-4.486-10-10zm49.987 29.981c-4.092-5.449-9.229-9.964-15.056-13.316 3.199-4.77 5.069-10.503 5.069-16.665 0-16.542-13.458-30-30-30s-30 13.458-30 30c0 6.162 1.87 11.895 5.069 16.665-5.827 3.353-10.964 7.868-15.056 13.316-6.284-8.359-10.013-18.742-10.013-29.981 0-27.57 22.43-50 50-50s50 22.43 50 50c0 11.239-3.729 21.622-10.013 29.981z"/><path d="m502 126h-116v-70c0-16.542-13.458-30-30-30h-200c-16.542 0-30 13.458-30 30v30h-116c-5.523 0-10 4.478-10 10v120c0 5.523 4.477 10 10 10h46.667l37.333 28c1.765 1.323 3.876 2 6.001 2 1.524 0 3.057-.349 4.471-1.056 3.388-1.694 5.528-5.156 5.528-8.944v-20h16v230c0 16.542 13.458 30 30 30h200c16.542 0 30-13.458 30-30v-190h16v20c0 3.788 2.14 7.25 5.528 8.944 1.415.708 2.946 1.056 4.471 1.056 2.125 0 4.236-.677 6.001-2l37.333-28h46.667c5.522 0 10-4.478 10-10v-120c0-5.523-4.478-10-10-10zm-296-80h100v20h-100zm-106 160c-5.522 0-10 4.477-10 10v10l-24-18c-1.73-1.298-3.836-2-6-2h-40v-100h140v100zm266 250c0 5.514-4.486 10-10 10h-200c-5.514 0-10-4.486-10-10v-230h24c5.523 0 10-4.477 10-10v-120c0-5.522-4.477-10-10-10h-24v-30c0-5.514 4.486-10 10-10h30v30c0 5.522 4.477 10 10 10h120c5.522 0 10-4.478 10-10v-30h30c5.514 0 10 4.486 10 10v70h-24c-5.522 0-10 4.477-10 10v120c0 5.522 4.478 10 10 10h24zm126-210h-40c-2.164 0-4.27.702-6 2l-24 18v-10c0-5.523-4.478-10-10-10h-60v-100h140z"/></g><g><path d="m460 186h-76c-5.522 0-10-4.477-10-10s4.478-10 10-10h76c5.522 0 10 4.477 10 10s-4.478 10-10 10z" fill="#dfedff"/></g><g><path d="m432 226h-48c-5.522 0-10-4.477-10-10s4.478-10 10-10h48c5.522 0 10 4.477 10 10s-4.478 10-10 10z" fill="#dfedff"/></g></g></svg>