<svg id="Layer_1" enable-background="new 0 0 512 512" height="512" viewBox="0 0 512 512" width="512" xmlns="http://www.w3.org/2000/svg"><g><circle cx="70" cy="276" fill="#ccf5fc" r="60"/><circle cx="70" cy="276" fill="#fff" r="20"/><path d="m70 296c-17.411 0-32.216 11.127-37.711 26.656 10.305 8.34 23.421 13.344 37.711 13.344s27.406-5.004 37.711-13.344c-5.495-15.529-20.3-26.656-37.711-26.656z" fill="#fff"/><path d="m290 166h-120l-40 40v-40h-60v-120h220z" fill="#fff"/><g><path d="m210 136h-100c-5.522 0-10-4.477-10-10 0-5.522 4.478-10 10-10h100c5.523 0 10 4.478 10 10 0 5.523-4.477 10-10 10z" fill="#dfedff"/></g><g><path d="m250 96h-140c-5.522 0-10-4.478-10-10s4.478-10 10-10h140c5.523 0 10 4.478 10 10s-4.477 10-10 10z" fill="#dfedff"/></g><circle cx="442" cy="406" fill="#fff" r="60"/><g fill="#ccf5fc"><circle cx="442" cy="406" r="20"/><path d="m442 426c17.411 0 32.216 11.127 37.711 26.656-10.305 8.34-23.421 13.344-37.711 13.344s-27.406-5.004-37.711-13.344c5.495-15.529 20.3-26.656 37.711-26.656z"/><path d="m222 296h120l40 40v-40h60v-80h-220z"/></g><g fill="#60a4ff"><path d="m70 206c-38.598 0-70 31.402-70 70s31.402 70 70 70 70-31.402 70-70-31.402-70-70-70zm-24.921 113.318c5.507-8.219 14.798-13.318 24.921-13.318s19.414 5.099 24.921 13.319c-7.342 4.241-15.849 6.681-24.921 6.681s-17.579-2.44-24.921-6.682zm14.921-43.318c0-5.514 4.486-10 10-10s10 4.486 10 10-4.486 10-10 10-10-4.486-10-10zm49.987 29.981c-4.092-5.449-9.229-9.964-15.056-13.316 3.199-4.77 5.069-10.503 5.069-16.665 0-16.542-13.458-30-30-30s-30 13.458-30 30c0 6.162 1.87 11.895 5.069 16.665-5.827 3.352-10.964 7.868-15.056 13.316-6.284-8.359-10.013-18.742-10.013-29.981 0-27.57 22.43-50 50-50s50 22.43 50 50c0 11.239-3.729 21.622-10.013 29.981z"/><path d="m300 166v-120c0-5.522-4.478-10-10-10h-220c-5.522 0-10 4.478-10 10v120c0 5.523 4.478 10 10 10h50v30c0 4.045 2.437 7.691 6.173 9.239 1.237.512 2.537.761 3.825.761 2.603 0 5.16-1.016 7.073-2.929l37.072-37.071h115.857c5.522 0 10-4.477 10-10zm-20-10h-110c-2.652 0-5.195 1.054-7.071 2.929l-22.929 22.928v-15.857c0-5.523-4.477-10-10-10h-50v-100h200z"/><path d="m442 336c-38.598 0-70 31.402-70 70s31.402 70 70 70 70-31.402 70-70-31.402-70-70-70zm-24.921 113.319c5.507-8.22 14.798-13.319 24.921-13.319s19.414 5.099 24.921 13.318c-7.342 4.242-15.849 6.682-24.921 6.682s-17.579-2.44-24.921-6.681zm14.921-43.319c0-5.514 4.486-10 10-10s10 4.486 10 10-4.486 10-10 10-10-4.486-10-10zm49.987 29.981c-4.092-5.449-9.229-9.964-15.056-13.316 3.199-4.77 5.069-10.503 5.069-16.665 0-16.542-13.458-30-30-30s-30 13.458-30 30c0 6.162 1.87 11.895 5.069 16.665-5.827 3.353-10.964 7.868-15.056 13.316-6.284-8.359-10.013-18.742-10.013-29.981 0-27.57 22.43-50 50-50s50 22.43 50 50c0 11.239-3.729 21.622-10.013 29.981z"/><path d="m382.002 346c1.288 0 2.588-.249 3.825-.761 3.736-1.548 6.173-5.194 6.173-9.239v-30h50c5.522 0 10-4.478 10-10v-80c0-5.523-4.478-10-10-10h-220c-5.523 0-10 4.477-10 10v80c0 5.522 4.477 10 10 10h115.857l37.071 37.071c1.914 1.913 4.471 2.929 7.074 2.929zm-10.002-34.143-22.929-22.929c-1.876-1.874-4.419-2.928-7.071-2.928h-110v-60h200v60h-50c-5.522 0-10 4.478-10 10z"/></g><circle cx="292" cy="256" fill="#fff" r="10"/><circle cx="332" cy="256" fill="#fff" r="10"/><circle cx="372" cy="256" fill="#fff" r="10"/></g></svg>