<svg id="Layer_1" enable-background="new 0 0 512 512" height="512" viewBox="0 0 512 512" width="512" xmlns="http://www.w3.org/2000/svg"><g><path d="m356 476h-200c-11.046 0-20-8.954-20-20v-400c0-11.046 8.954-20 20-20h200c11.046 0 20 8.954 20 20v400c0 11.046-8.954 20-20 20z" fill="#ccf5fc"/><path d="m196 36h120v40h-120z" fill="#fff"/><g><path d="m296 446h-80c-5.523 0-10-4.478-10-10s4.477-10 10-10h80c5.522 0 10 4.478 10 10s-4.478 10-10 10z" fill="#fff"/></g><circle cx="110" cy="196" fill="#ffee80" r="100"/><circle cx="402" cy="316" fill="#ffee80" r="100"/><circle cx="402" cy="316" fill="#fff" r="50"/><g fill="#60a4ff"><path d="m130 166.503c5.523 0 10-4.477 10-10 0-5.522-4.477-10-10-10h-10v-9.996c0-5.522-4.478-10-10-10s-10 4.478-10 10v9.996h-10c-5.522 0-10 4.478-10 10v40c0 5.523 4.478 10 10 10h30v20h-30c-5.522 0-10 4.478-10 10 0 5.523 4.478 10 10 10h10v8.99c0 5.522 4.478 10 10 10s10-4.478 10-10v-8.99h10c5.523 0 10-4.477 10-10v-40c0-5.522-4.477-10-10-10h-30v-20z"/><path d="m402 206c-5.434 0-10.775.403-16 1.167v-151.167c0-16.542-13.458-30-30-30h-200c-16.542 0-30 13.458-30 30v31.168c-5.225-.765-10.566-1.168-16-1.168-60.654 0-110 49.346-110 110s49.346 110 110 110c5.434 0 10.775-.403 16-1.168v151.168c0 16.542 13.458 30 30 30h200c16.542 0 30-13.458 30-30v-31.168c5.225.765 10.566 1.168 16 1.168 60.654 0 110-49.346 110-110s-49.346-110-110-110zm-196-160h100v20h-100zm-186 150c0-49.626 40.374-90 90-90s90 40.374 90 90-40.374 90-90 90-90-40.374-90-90zm346 260c0 5.514-4.486 10-10 10h-200c-5.514 0-10-4.486-10-10v-156.057c43.027-14.944 74-55.892 74-103.943s-30.973-88.999-74-103.944v-36.056c0-5.514 4.486-10 10-10h30v30c0 5.522 4.477 10 10 10h120c5.522 0 10-4.478 10-10v-30h30c5.514 0 10 4.486 10 10v156.056c-43.027 14.945-74 55.892-74 103.944s30.973 88.999 74 103.943zm36-50c-49.626 0-90-40.374-90-90s40.374-90 90-90 90 40.374 90 90-40.374 90-90 90z"/><path d="m246 206h90c4.045 0 7.691-2.436 9.239-6.173 1.547-3.737.691-8.038-2.168-10.898l-30-30c-3.906-3.904-10.236-3.904-14.143 0-3.905 3.905-3.905 10.237 0 14.143l12.929 12.928h-65.857c-5.523 0-10 4.477-10 10s4.477 10 10 10z"/><path d="m266 306h-90c-4.045 0-7.691 2.436-9.239 6.173-1.547 3.737-.691 8.038 2.168 10.898l30 30c1.953 1.952 4.511 2.929 7.071 2.929s5.118-.977 7.071-2.929c3.905-3.905 3.905-10.237 0-14.143l-12.928-12.928h65.857c5.522 0 10-4.478 10-10s-4.478-10-10-10z"/></g></g></svg>