<svg id="Layer_1" enable-background="new 0 0 512 512" height="512" viewBox="0 0 512 512" width="512" xmlns="http://www.w3.org/2000/svg"><g><path d="m462 386h-360v-230c0-11.046 8.954-20 20-20h320c11.046 0 20 8.954 20 20z" fill="#ccf5fc"/><g><g><path d="m416.735 236.637c-.014 0-.027 0-.041 0l-35.999-.144c-5.522-.022-9.981-4.517-9.96-10.04.022-5.509 4.495-9.96 9.999-9.96h.041l35.999.144c5.522.022 9.981 4.517 9.96 10.04-.022 5.509-4.495 9.96-9.999 9.96z" fill="#99ebfa"/></g><g><path d="m416.895 196.637c-.014 0-.027 0-.041 0l-69.999-.278c-5.522-.022-9.982-4.517-9.96-10.04.022-5.509 4.495-9.96 9.999-9.96h.041l69.999.278c5.522.022 9.981 4.517 9.96 10.04-.022 5.509-4.496 9.96-9.999 9.96z" fill="#99ebfa"/></g></g><path d="m62 386h440v50h-440z" fill="#fff"/><g fill="#ffee80"><path d="m282 266h100v40h-100z"/><path d="m282 306h100v40h-100z"/><path d="m282 346h100v40h-100z"/><path d="m182 346h100v40h-100z"/><path d="m182 306h100v40h-100z"/><circle cx="110" cy="176" r="100"/></g><g fill="#60a4ff"><path d="m120 235.494v-8.99h10c5.523 0 10-4.477 10-10v-40c0-5.523-4.477-10-10-10h-30v-20h30c5.523 0 10-4.477 10-10s-4.477-10-10-10h-10v-9.997c0-5.523-4.477-10-10-10s-10 4.477-10 10v9.997h-10c-5.523 0-10 4.477-10 10v40c0 5.523 4.477 10 10 10h30v20h-30c-5.523 0-10 4.477-10 10s4.477 10 10 10h10v8.99c0 5.523 4.477 10 10 10s10-4.477 10-10z"/><path d="m502 376h-30v-220c0-16.542-13.458-30-30-30h-234.035c-18.237-35.588-55.304-60-97.965-60-60.654 0-110 49.346-110 110 0 54.525 39.879 99.903 92 108.519v91.481h-30c-5.523 0-10 4.477-10 10v50c0 5.523 4.477 10 10 10h440c5.522 0 10-4.477 10-10v-50c0-5.523-4.478-10-10-10zm-482-200c0-49.626 40.374-90 90-90s90 40.374 90 90-40.374 90-90 90-90-40.374-90-90zm92 109.975c59.734-1.071 108-49.989 108-109.975 0-10.396-1.451-20.46-4.158-30h226.158c5.514 0 10 4.486 10 10v220h-60v-110c0-5.523-4.478-10-10-10h-100c-5.522 0-10 4.477-10 10v30h-90c-5.523 0-10 4.477-10 10v70h-60zm180 90.025v-20h80v20zm-100 0v-20h80v20zm100-60h80v20h-80zm80-20h-80v-20h80zm-100 40h-80v-20h80zm220 90h-420v-30h420z"/></g></g></svg>