<svg id="Layer_1" enable-background="new 0 0 512 512" height="512" viewBox="0 0 512 512" width="512" xmlns="http://www.w3.org/2000/svg"><g><path d="m366 50h40v160h-40z" fill="#ccf5fc"/><g fill="#fff"><path d="m366 90h40v40h-40z"/><path d="m366 170h40v40h-40z"/><path d="m366 350v-320c0-11.046-8.954-20-20-20h-240c-11.046 0-20 8.954-20 20v320c0 11.046 8.954 20 20 20h240c11.046 0 20-8.954 20-20z"/></g><path d="m136 10v360h-30c-11.05 0-20-8.95-20-20v-320c0-11.05 8.95-20 20-20z" fill="#ccf5fc"/><g><circle cx="251" cy="190" fill="#fff" r="60"/><g fill="#ccf5fc"><circle cx="251" cy="190" r="20"/><path d="m251 210c17.411 0 32.216 11.127 37.711 26.656-10.305 8.34-23.421 13.344-37.711 13.344s-27.406-5.004-37.711-13.344c5.495-15.529 20.3-26.656 37.711-26.656z"/></g></g><path d="m426 502h-100c-11.046 0-20-8.954-20-20v-200c0-11.046 8.954-20 20-20h100c11.046 0 20 8.954 20 20v200c0 11.046-8.954 20-20 20z" fill="#ccf5fc"/><g fill="#60a4ff"><path d="m321 190c0-38.598-31.402-70-70-70s-70 31.402-70 70 31.402 70 70 70 70-31.402 70-70zm-120 0c0-27.57 22.43-50 50-50s50 22.43 50 50c0 11.239-3.729 21.622-10.012 29.981-4.092-5.449-9.229-9.964-15.056-13.316 3.198-4.77 5.068-10.503 5.068-16.665 0-16.542-13.458-30-30-30s-30 13.458-30 30c0 6.163 1.87 11.895 5.069 16.665-5.827 3.352-10.964 7.868-15.056 13.316-6.284-8.358-10.013-18.742-10.013-29.981zm40 0c0-5.514 4.486-10 10-10s10 4.486 10 10-4.486 10-10 10-10-4.486-10-10zm-14.921 43.319c5.508-8.22 14.799-13.319 24.921-13.319 10.123 0 19.414 5.099 24.921 13.319-7.342 4.241-15.849 6.681-24.921 6.681-9.071 0-17.578-2.44-24.921-6.681z"/><path d="m426 252h-50v-32h30c5.523 0 10-4.477 10-10v-160c0-5.522-4.477-10-10-10h-30v-10c0-16.542-13.458-30-30-30h-240c-16.542 0-30 13.458-30 30v10h-10c-5.523 0-10 4.478-10 10s4.477 10 10 10h10v20h-10c-5.523 0-10 4.478-10 10s4.477 10 10 10h10v20h-10c-5.523 0-10 4.478-10 10 0 5.523 4.477 10 10 10h10v20h-10c-5.523 0-10 4.477-10 10s4.477 10 10 10h10v20h-10c-5.523 0-10 4.477-10 10s4.477 10 10 10h10v20h-10c-5.523 0-10 4.477-10 10s4.477 10 10 10h10v20h-10c-5.523 0-10 4.478-10 10s4.477 10 10 10h10v20h-10c-5.523 0-10 4.478-10 10s4.477 10 10 10h10v10c0 16.542 13.458 30 30 30h190v102c0 16.542 13.458 30 30 30h100c16.542 0 30-13.458 30-30v-200c0-16.542-13.458-30-30-30zm-50-112h20v20h-20zm20-20h-20v-20h20zm-20 80v-20h20v20zm20-140v20h-20v-20zm-300 290v-320c0-5.514 4.486-10 10-10h20v340h-20c-5.514 0-10-4.486-10-10zm50 10v-340h200c5.514 0 10 4.486 10 10v222h-30c-16.542 0-30 13.458-30 30v78zm290 122c0 5.514-4.486 10-10 10h-100c-5.514 0-10-4.486-10-10v-200c0-5.514 4.486-10 10-10h100c5.514 0 10 4.486 10 10z"/></g><g><path d="m396 472h-40c-5.523 0-10-4.478-10-10s4.477-10 10-10h40c5.523 0 10 4.478 10 10s-4.477 10-10 10z" fill="#fff"/></g><circle cx="376" cy="302" fill="#66e0f7" r="10"/></g></svg>