<svg id="Layer_35" enable-background="new 0 0 64 64" height="512" viewBox="0 0 64 64" width="512" xmlns="http://www.w3.org/2000/svg"><path d="m52 25.83v8.17h-19c-.63 0-1.22-.3-1.6-.8l-1.8-2.4c-.38-.5-.97-.8-1.6-.8h-14c-1.1 0-2 .9-2 2v4h-6v10h6v4h-8c-1.1 0-2-.9-2-2v-22h48c.68 0 1.35-.06 2-.17z" fill="#b4dd7f"/><path d="m12 38v8h-6v-10h6z" fill="#ef7385"/><path d="m50 26h-48v-6c0-1.1.9-2 2-2h14c.63 0 1.22.3 1.6.8l1.8 2.4c.38.5.97.8 1.6.8h18.05c2.2 2.46 5.39 4 8.95 4z" fill="#fcd770"/><path d="m62 38v22c0 1.1-.9 2-2 2h-46c-1.1 0-2-.9-2-2v-10-4-8z" fill="#e6e9ed"/><path d="m62 36v2h-50v-2-4c0-1.1.9-2 2-2h14c.63 0 1.22.3 1.6.8l1.8 2.4c.38.5.97.8 1.6.8h19 8c1.1 0 2 .9 2 2z" fill="#fcd770"/><path d="m41.05 22c-1.9-2.12-3.05-4.92-3.05-8 0-6.63 5.37-12 12-12s12 5.37 12 12c0 5.95-4.32 10.88-10 11.83-.65.11-1.32.17-2 .17-3.56 0-6.75-1.54-8.95-4z" fill="#e6e9ed"/><path d="m38 42h20v16h-20z" fill="#ef7385"/><path d="m56 12v4h-4v4h-4v-4h-4v-4h4v-4h4v4z" fill="#b4dd7f"/><path d="m34 57.26v.74h-18v-.74c0-1.34.89-2.51 2.18-2.88l4.82-1.38v-1.55c-1.19-.7-2-1.97-2-3.45v-2c0-2.33 1.99-4.19 4.36-3.98 2.1.18 3.64 2.08 3.64 4.19v1.79c0 1.48-.81 2.75-2 3.45v1.55l4.82 1.38c1.29.37 2.18 1.54 2.18 2.88z" fill="#b4dd7f"/><path d="m47 21h6v-4h4v-6h-4v-4h-6v4h-4v6h4zm-2-6v-2h4v-4h2v4h4v2h-4v4h-2v-4z"/><path d="m60 33h-7v-6.363c5.724-1.36 10-6.502 10-12.637 0-7.168-5.832-13-13-13s-13 5.832-13 13c0 2.578.763 4.977 2.063 7h-16.063c-.313 0-.612-.149-.8-.4l-1.8-2.401c-.564-.751-1.461-1.199-2.4-1.199h-14c-1.654 0-3 1.346-3 3v28c0 1.654 1.346 3 3 3h7v9c0 1.654 1.346 3 3 3h46c1.654 0 3-1.346 3-3v-24c0-1.654-1.346-3-3-3zm1 3v1h-48v-5c0-.551.449-1 1-1h14c.313 0 .612.149.8.4l1.8 2.401c.564.751 1.461 1.199 2.4 1.199h27c.551 0 1 .449 1 1zm-11-33c6.065 0 11 4.935 11 11s-4.935 11-11 11-11-4.935-11-11 4.935-11 11-11zm-46 16h14c.313 0 .612.149.8.4l1.8 2.401c.564.751 1.461 1.199 2.4 1.199h17.641c.734.764 1.562 1.433 2.463 2h-40.104v-5c0-.551.449-1 1-1zm0 30c-.551 0-1-.449-1-1v-21h47c.338 0 .669-.025 1-.051v6.051h-18c-.313 0-.612-.149-.8-.4l-1.8-2.401c-.564-.751-1.461-1.199-2.4-1.199h-14c-1.654 0-3 1.346-3 3v3h-6v12h6v2zm7-12v8h-4v-8zm49 24h-46c-.551 0-1-.449-1-1v-21h48v21c0 .551-.449 1-1 1z"/><path d="m32.099 53.417-4.099-1.171v-.266c1.246-.939 2-2.416 2-3.979v-1.792c0-2.688-2.001-4.966-4.556-5.188-1.399-.125-2.793.35-3.822 1.294-1.031.944-1.622 2.288-1.622 3.685v2c0 1.563.754 3.041 2 3.979v.266l-4.099 1.171c-1.708.488-2.901 2.07-2.901 3.847v1.737h20v-1.737c0-1.777-1.193-3.359-2.901-3.846zm-15.081 3.583c.104-.778.664-1.44 1.433-1.66l5.549-1.586v-2.884l-.497-.289c-.941-.548-1.503-1.513-1.503-2.581v-2c0-.838.355-1.645.974-2.212.626-.575 1.437-.852 2.298-.776 1.529.133 2.728 1.536 2.728 3.196v1.792c0 1.068-.562 2.033-1.503 2.581l-.497.289v2.884l5.55 1.585c.769.22 1.329.882 1.433 1.66h-15.965z"/><path d="m15 33h2v2h-2z"/><path d="m19 33h2v2h-2z"/><path d="m23 33h2v2h-2z"/><path d="m5 21h2v2h-2z"/><path d="m9 21h2v2h-2z"/><path d="m13 21h2v2h-2z"/><path d="m37 59h22v-18h-22zm2-16h18v14h-18z"/><path d="m41 45h14v2h-14z"/><path d="m41 49h14v2h-14z"/><path d="m41 53h2v2h-2z"/><path d="m45 53h10v2h-10z"/><path d="m15 41h2v2h-2z"/><path d="m15 45h2v2h-2z"/><path d="m15 49h2v2h-2z"/><path d="m47 29h2v2h-2z"/><path d="m43 29h2v2h-2z"/><path d="m39 29h2v2h-2z"/></svg>