<svg id="Capa_1" enable-background="new 0 0 512 512" height="512" viewBox="0 0 512 512" width="512" xmlns="http://www.w3.org/2000/svg"><g><path d="m392 197.749h45v70h-45z" fill="#a8e5ff"/><path d="m489.5 87.749h-29.992v135h29.992c8.284 0 15-6.716 15-15v-105c0-8.284-6.716-15-15-15z" fill="#2dade3"/><path d="m459.51 87.749h-120.01c-8.284 0-15 6.716-15 15v105c0 8.284 6.716 15 15 15h120.01c8.284 0 15-6.716 15-15v-105c0-8.284-6.716-15-15-15z" fill="#49c9ff"/><path d="m504.5 464.749h-30.005l-119.992-197 149.997 15z" fill="#a45e43"/><path d="m474.495 464.749h-149.995v-197h149.995v45l-60 53.5 60 68.5z" fill="#c27749"/><path d="m474.495 434.749h-30l-30-83.5 60 22.5z" fill="#e18f4e"/><path d="m444.495 434.749h-89.992v-61l89.992-37.5z" fill="#ffa754"/><path d="m444.493 373.749-30.003-30.5 30.003-30.5h30.002v61z" fill="#ffa754"/><path d="m354.503 312.749h89.992v61h-89.992z" fill="#ffcb63"/><path d="m474.495 252.749-30 15 30 15h30.005v-30z" fill="#a8e5ff"/><path d="m7.5 252.749h466.995v30h-466.995z" fill="#dbf4ff"/><path d="m221 167.249h-30l20 128h30v-108c0-11.045-8.954-20-20-20z" fill="#ffa754"/><path d="m191 167.249h-20c-11.046 0-20 8.954-20 20v108h60v-108c0-11.045-8.954-20-20-20z" fill="#ffcb63"/><path d="m241 387.749h30v-30l-60-45z" fill="#2dade3"/><path d="m241 387.749h-120v-30l120-75z" fill="#49c9ff"/><path d="m241 217.249h-30l30 140.5h30v-110.5c0-16.5-13.5-30-30-30z" fill="#1990c2"/><path d="m241 247.249v110.5h-120v-110.5c0-16.5 13.5-30 30-30h60c16.5 0 30 13.5 30 30z" fill="#2dade3"/><path d="m263.166 108.979c-.061-3.436-1.267-6.592-3.266-9.092l-28.751-35.721c-8.212-10.264-20.817-16.856-34.971-16.911l36 89.995h24c8.284 0 15-6.716 15-15.002-.001-5.76-3.25-10.755-8.012-13.269z" fill="#60312c"/><path d="m196.071 47.249c.019.001.062.005.106.005-.035 0-.07-.005-.106-.005z" fill="#ff4128"/><path d="m236.37 108.979c-.036-3.436-.76-6.592-1.959-9.092l-17.251-35.722c-4.927-10.264-12.49-16.856-20.983-16.911-.044 0-.087-.004-.132-.004-15.501-.001-29.132 7.793-37.234 19.661l-26.357 32.975c-1.999 2.5-3.205 5.657-3.266 9.092-4.762 2.514-8.011 7.509-8.011 13.269 0 8.285 6.716 15.002 15 15.002h95.999c4.971 0 9-6.716 9-15.002.001-5.759-1.948-10.754-4.806-13.268z" fill="#85453d"/><path d="m414.51 117.749v75c20.711 0 37.5-16.789 37.5-37.5s-16.79-37.5-37.5-37.5z" fill="#a45e43"/><path d="m422.01 155.249c0-20.711-3.358-37.5-7.5-37.5-20.711 0-37.5 16.789-37.5 37.5s16.789 37.5 37.5 37.5c4.142 0 7.5-16.789 7.5-37.5z" fill="#c27749"/><path d="m489.5 230.249c12.406 0 22.5-10.094 22.5-22.5v-105c0-12.406-10.094-22.5-22.5-22.5h-150c-12.406 0-22.5 10.094-22.5 22.5v105c0 12.406 10.094 22.5 22.5 22.5h45v15h-106.054c-.909-17.216-13.483-31.39-29.946-34.745v-23.255c0-15.163-12.337-27.5-27.5-27.5h-50c-12.465 0-23.013 8.339-26.375 19.729-42.52-3.268-76.125-38.886-76.125-82.229 0-4.143-3.357-7.5-7.5-7.5s-7.5 3.357-7.5 7.5c0 51.238 39.729 93.372 90 97.214v16.04c-16.462 3.355-29.036 17.529-29.946 34.745h-106.054c-4.143 0-7.5 3.357-7.5 7.5v195.772c0 13.083 10.645 23.728 23.728 23.728 11.669 0 21.515-8.356 23.413-19.869l26.725-162.131h39.634v174.5c0 4.143 3.357 7.5 7.5 7.5s7.5-3.357 7.5-7.5v-69.5h30v39.729l-13.208 26.416c-1.853 3.705-.351 8.21 3.354 10.063 1.077.539 2.222.794 3.349.794 2.751 0 5.4-1.52 6.714-4.147l14-28c.521-1.042.792-2.19.792-3.354v-41.5h45v41.5c0 1.164.271 2.313.792 3.354l14 28c1.313 2.628 3.963 4.147 6.714 4.147 1.127 0 2.271-.256 3.349-.794 3.704-1.853 5.206-6.357 3.354-10.063l-13.21-26.414v-39.729h30v69.5c0 4.143 3.357 7.5 7.5 7.5s7.5-3.357 7.5-7.5v-174.502h38.5v174.501c0 4.143 3.357 7.5 7.5 7.5h180c4.143 0 7.5-3.357 7.5-7.5v-212c0-4.143-3.357-7.5-7.5-7.5h-60v-15zm-157.5-22.5v-105c0-4.136 3.364-7.5 7.5-7.5h150c4.136 0 7.5 3.364 7.5 7.5v105c0 4.136-3.364 7.5-7.5 7.5h-150c-4.136 0-7.5-3.364-7.5-7.5zm-161-33h50c6.893 0 12.5 5.607 12.5 12.5v22.5h-75v-22.5c0-6.893 5.607-12.5 12.5-12.5zm-42.5 72.5c0-12.406 10.094-22.5 22.5-22.5h90c12.406 0 22.5 10.094 22.5 22.5v103h-135zm-96.16 202.691c-.698 4.234-4.32 7.309-8.612 7.309-4.813 0-8.728-3.915-8.728-8.728v-158.272h43.662zm-17.34-174.691v-15h98.5v15zm113.5 105v-15h135v15zm203.5 77v-167.001h165v167.001zm165-182.001h-218.5v-14.999h218.5zm-67.5-29.999h-30v-15h30z"/><path d="m474.495 305.249h-119.992c-4.143 0-7.5 3.357-7.5 7.5v122c0 4.143 3.357 7.5 7.5 7.5h119.992c4.143 0 7.5-3.357 7.5-7.5v-122c0-4.143-3.357-7.5-7.5-7.5zm-7.5 15v46h-104.992v-46zm-104.992 107v-46h104.992v46z"/><path d="m459.51 155.249c0-24.813-20.187-45-45-45s-45 20.187-45 45 20.187 45 45 45 45-20.186 45-45zm-75 0c0-16.542 13.458-30 30-30s30 13.458 30 30-13.458 30-30 30-30-13.458-30-30z"/><path d="m136.178 144.749h119.999c12.406 0 22.5-10.094 22.5-22.501 0-6.938-3.166-13.367-8.472-17.591-.707-3.443-2.215-6.662-4.462-9.473l-28.738-35.705c-10.032-12.539-24.978-19.73-41.005-19.73-17.264 0-33.396 8.478-43.217 22.692l-26.188 32.763c-2.235 2.797-3.74 6.011-4.446 9.454-5.307 4.224-8.472 10.652-8.472 17.59.001 12.407 10.094 22.501 22.501 22.501zm-3.488-29.139c2.418-1.276 3.948-3.767 3.997-6.5.029-1.677.592-3.248 1.625-4.541 0 0 26.587-33.273 26.693-33.429 7.008-10.263 18.595-16.391 30.995-16.391 11.445 0 22.122 5.14 29.306 14.118l28.736 35.702c1.033 1.293 1.596 2.864 1.625 4.541.049 2.733 1.579 5.224 3.997 6.5 2.475 1.308 4.013 3.851 4.013 6.638 0 4.136-3.364 7.501-7.5 7.501h-119.999c-4.136 0-7.5-3.365-7.5-7.501 0-2.787 1.538-5.33 4.012-6.638z"/></g></svg>